<?xml version="1.0" standalone="no"?><!DOCTYPE svg PUBLIC "-//W3C//DTD SVG 1.1//EN" "http://www.w3.org/Graphics/SVG/1.1/DTD/svg11.dtd"><svg t="1701760369801" class="icon" viewBox="0 0 1024 1024" version="1.1" xmlns="http://www.w3.org/2000/svg" p-id="5723" xmlns:xlink="http://www.w3.org/1999/xlink" width="200" height="200"><path d="M1006.11712 226.56c-99.584 149.056-246.144 29.184-461.824-132.8-232.32-174.976-370.56 74.496-384.384 103.68 11.072 45.312 159.232 538.048 159.232 538.048 47.04-168.448 142.208-178.496 297.024-129.92 168.704 51.84 304.192-71.232 345.728-161.92 27.648-58.368 49.728-152.32 60.8-207.36 2.752-9.728-11.072-16.192-16.64-9.728zM869.28512 399.744c-35.84 78.464-132.672 135.808-223.104 107.968-115.968-36.416-213.632-29.696-288.384 19.456l-20.032-71.296-0.768-2.624a49329.408 49329.408 0 0 1-67.2-240.96c14.848-20.864 35.392-43.392 57.6-58.432 44.032-29.696 88-28.928 155.2 21.696 185.088 138.944 222.464 164.928 296.832 195.84a323.84 323.84 0 0 0 91.84 24.128l-1.984 4.224z" fill="#68A2FD" p-id="5724"></path><path d="M110.11712 212.288c-8.32-30.4-38.72-49.792-69.12-41.472a55.296 55.296 0 0 0-38.72 69.12L220.77312 947.2c8.32 30.336 38.72 49.728 69.12 41.408 30.4-8.32 46.976-38.72 38.72-71.872L110.11712 212.288z" fill="#727484" p-id="5725"></path></svg>